<svg xmlns="http://www.w3.org/2000/svg" width="32" height="32" viewBox="0 0 32 32">
    <g fill="#4DA1FF" fill-rule="nonzero">
        <path
            d="M19.647 15.69l-3.308-3.308a.5.5 0 0 0-.707 0l-3.308 3.308a.441.441 0 0 0 .021.644l.004.003a.5.5 0 0 0 .682-.023l2.51-2.51.012 13.752a.444.444 0 1 0 .888 0l-.012-13.752 2.51 2.51a.5.5 0 0 0 .683.023l.004-.003a.441.441 0 0 0 .021-.644z"/>
        <path
            d="M25.219 10.608c-.444-2.22-2.486-3.907-4.794-3.907-.8 0-1.51.178-2.131.533a6.13 6.13 0 0 0-5.416-3.196 6.176 6.176 0 0 0-6.215 6.214v.356C5.065 11.318 4 12.828 4 14.69a4.396 4.396 0 0 0 4.44 4.44h5.77a.444.444 0 0 0 0-.888H8.44a3.562 3.562 0 0 1-3.552-3.552A3.525 3.525 0 0 1 7.64 11.23c-.089-.355-.089-.621-.089-.977 0-2.93 2.397-5.326 5.327-5.326 2.308 0 4.262 1.509 5.06 3.55.711-.532 1.599-.887 2.487-.887a3.976 3.976 0 0 1 3.995 3.64c1.509.355 2.663 1.776 2.663 3.462a3.562 3.562 0 0 1-3.551 3.552h-5.77a.444.444 0 1 0 0 .888h5.77a4.396 4.396 0 0 0 4.439-4.44c0-1.864-1.154-3.462-2.752-4.083z"/>
    </g>
</svg>
